<?xml version="1.0" ?><!-- Uploaded to: SVG Repo, www.svgrepo.com, Generator: SVG Repo Mixer Tools -->
<svg fill="#000000" width="800px" height="800px" viewBox="0 0 750 750" id="a" xmlns="http://www.w3.org/2000/svg"><path d="M591.26,482.55c.9-18.62,1.27-37.27,.78-55.9-.24-7.36-.82-14.7-1.22-22.05-.6-17.3,1.07-34.61-.43-51.91-.31-7.5-1.3-16.5-7.87-21.22-5.75-3.24-12.66-1.76-18.97-2.75-24.21-3.4-49.76-3.58-74.39-6.28-1.66-10.8-4.6-21.38-5.44-32.3-1.18-13.5-1.71-27.05-2.8-40.56-1.35-13.71,2.49-32.18-10.79-41.01-6.66-3.31-14.44-1.39-21.61-1.78-4.91,.06-9.86,.01-14.75,.34-33.83,1.54-67.45,7-101.4,5.79-16.14,.69-44.72-4.16-56.54,7.77-13.41,12.34-4.95,88.54-3.02,108.32-19.55,1.45-39.19-.37-58.75-.91-18,.47-54.07-5.94-53.49,21.05-1.12,15.36-2.83,27.98-2.84,44.06,.2,12.26,1.08,24.5,2.09,36.72,1.52,17.33,1.72,34.74,.89,52.11-.32,15.98-6.87,54.61,13.9,59.33,36.33,.48,72.65-2.23,108.98-2.29,25.37,.83,50.66,3.53,76.04,4.23,46.22,1.1,92.12-7.04,138.33-6.77,15.69,.13,31.36,.81,47.06,.68,10.13-.17,20.4,.72,30.41-1.25,9.6-1.37,16.28-10.23,15.92-19.76,.01-11.22-.47-22.44-.09-33.66Zm-14.63-74.79c-1.95,17.77-2.55,35.63-4.32,53.41-1.82,15.9-3.61,31.84-3.06,47.87-13.56,3.39-27.65,3.91-41.41,6.14-22.52,3.48-45.09,8.08-67.99,7.3-36.48-1.04-72.36-9.38-108.9-9.93-21.75-.69-43.4,1.74-65.11,2.46-35.6,.72-71.2-3.64-106.81-1.37-9.29-51.62-8.48-104.52,.57-156.09,32.03-2.94,64.32-2.3,96.36-4.94,4.97,7.76,14.33,3.27,15.78-4.58,2.47-11.99,.11-24.34-.98-36.38-2.86-24-5.34-48.4-2.97-72.54,14.56-6.91,31.13-7.14,46.94-8.13,41.51-1.84,82.6,6.82,124.12,5.82,1.63,14.72,5.29,29.19,5.97,44.02,.22,15.27,1.43,30.46,3.07,45.63-1.73,27.63,17.39,29.44,39.82,29.02,23.41-.49,46.24-3.85,69.69-5.29,4.82,18.87,.32,38.49-.77,57.58Z"/><path d="M394.81,262.41c-5.45-18.43-15.46-13.8-28.2-5.59-7.7,5.18-17.4,8.88-22.64,16.83-2.61,5.37-1.9,12.82,2.73,16.89,2.64,2.18,5.99,2.56,8.97,.83,7.28-4.21,14.51-8.49,21.76-12.74,.03,.47,.06,.94,.08,1.41,.59,14.03,.66,28.07,.66,42.11,.41,15.79,17.71,15.69,18.1,0-.59-19.86,1.82-40.08-1.46-59.74Z"/><path d="M302.62,457.6c-13.18,1.12-26.4,2.11-39.63,2.37,23.58-17.07,32.76-47.18,10.14-69.24-10.76-8.16-30.31-1.83-36.28,9.74-3.9,6.62-2.76,18.1,5.75,20.31,5.46,.87,6.85-2.88,10.1-5.77,3.17-.96,8.61-3.77,11.33-1.24,2.22,3.34,4.33,7.42,2.12,11.29-6.58,13.92-21.83,20.48-33.7,29.17-9.37,4.24-12.43,18.03-3.55,24.3,3.43,2.18,7.37,1.32,11.15,1.04,20.78-1.38,41.72-2.43,62.58-4.29,2.17-.19,3.85-1.21,5.07-3.04,3.3-4.75,1.62-14.27-5.07-14.65Z"/><path d="M485.54,390.06c-5.32-1.85-10.85-1.9-16.4-1.4-5.52,.49-10.97,1.44-16.27,3.07-6.78,1.88-13.55,5.41-14.1,13.23-.67,4.73,1.18,9.99,5.24,12.67,3.07,2.33,6.77,.52,9.87-.66,8.54-1.78,17.7-4.16,26.35-2.1-5.12,3.85-11.92,4.16-18.06,4.96-7.7,.36-12.19,.45-14.52,8.95-1.01,4.31-.07,9.01,2.74,12.45,2.53,3.48,7.1,3.16,10.89,2.75,8.57,.3,26.82-1.09,27.52,10.74-2.74,8.61-13,10.49-20.94,9.94-6.19-.94-12.44-2.34-18.06-5.19-2.73-1.48-5.79-3.59-8.84-1.57-5.39,3.49-5.56,13.35,0,16.79,4.69,2.83,9.74,4.85,15.12,5.91,11.85,2.82,25.21,2.86,35.79-3.82,15.6-10.42,17.26-34.03,4.13-47.13,8.62-12.63,4.62-33.91-10.46-39.6Z"/></svg>